<?xml version="1.0" encoding="UTF-8" standalone="no"?>
<!DOCTYPE svg PUBLIC "-//W3C//DTD SVG 1.1//EN" "http://www.w3.org/Graphics/SVG/1.1/DTD/svg11.dtd">
<svg width="100%" height="100%" viewBox="0 0 389 389" version="1.1" xmlns="http://www.w3.org/2000/svg" xmlns:xlink="http://www.w3.org/1999/xlink" xml:space="preserve" xmlns:serif="http://www.serif.com/" style="fill-rule:evenodd;clip-rule:evenodd;stroke-linejoin:round;stroke-miterlimit:2;">
    <g transform="matrix(1,0,0,1,0.5,-46)">
        <path d="M85.5,106.5C86.386,113.457 86.72,120.457 86.5,127.5C82.968,127.31 79.635,127.977 76.5,129.5L76.5,107.5C79.43,106.701 82.43,106.368 85.5,106.5Z" style="fill:rgb(152,158,160);fill-opacity:0.82;"/>
    </g>
    <g transform="matrix(1,0,0,1,0.5,-46)">
        <path d="M85.5,106.5L91.5,106.5C94.167,113.5 94.167,120.5 91.5,127.5L86.5,127.5C86.72,120.457 86.386,113.457 85.5,106.5Z" style="fill:rgb(146,157,161);fill-opacity:0.85;"/>
    </g>
    <g transform="matrix(1,0,0,1,0.5,-46)">
        <path d="M91.5,106.5C94.902,106.342 98.236,106.676 101.5,107.5L101.5,127.5L91.5,127.5C94.167,120.5 94.167,113.5 91.5,106.5Z" style="fill:rgb(140,155,161);fill-opacity:0.78;"/>
    </g>
    <g transform="matrix(1,0,0,1,0.5,-46)">
        <path d="M76.5,107.5L76.5,129.5C72.846,129.942 69.179,130.276 65.5,130.5C64.542,130.047 63.708,129.381 63,128.5C63.059,122.219 62.225,116.219 60.5,110.5C65.52,108.591 70.853,107.591 76.5,107.5Z" style="fill:rgb(160,160,161);fill-opacity:0.82;"/>
    </g>
    <g transform="matrix(1,0,0,1,0.5,-46)">
        <path d="M101.5,107.5C105.329,106.931 108.663,107.598 111.5,109.5C110.603,110.598 109.77,110.598 109,109.5C108.501,115.491 108.334,121.491 108.5,127.5L101.5,127.5L101.5,107.5Z" style="fill:rgb(134,153,160);fill-opacity:0.74;"/>
    </g>
    <g transform="matrix(1,0,0,1,0.5,-46)">
        <path d="M111.5,109.5C113.95,109.298 116.283,109.631 118.5,110.5L118.5,129.5C115.167,128.833 111.833,128.167 108.5,127.5C108.334,121.491 108.501,115.491 109,109.5C109.77,110.598 110.603,110.598 111.5,109.5Z" style="fill:rgb(128,153,161);fill-opacity:0.8;"/>
    </g>
    <g transform="matrix(1,0,0,1,0.5,-46)">
        <path d="M60.5,110.5C62.225,116.219 63.059,122.219 63,128.5C63.708,129.381 64.542,130.047 65.5,130.5C61.711,132.46 57.711,134.127 53.5,135.5C53.666,128.825 53.5,122.158 53,115.5C52.292,114.619 51.458,113.953 50.5,113.5C53.792,112.504 57.125,111.504 60.5,110.5Z" style="fill:rgb(166,165,165);fill-opacity:0.8;"/>
    </g>
    <g transform="matrix(1,0,0,1,0.5,-46)">
        <path d="M118.5,110.5C121.308,110.693 123.975,111.36 126.5,112.5C125.758,118.118 125.258,123.785 125,129.5C124.617,130.056 124.117,130.389 123.5,130.5C121.708,130.634 120.042,130.301 118.5,129.5L118.5,110.5Z" style="fill:rgb(121,151,161);fill-opacity:0.77;"/>
    </g>
    <g transform="matrix(1,0,0,1,0.5,-46)">
        <path d="M50.5,113.5C51.458,113.953 52.292,114.619 53,115.5C53.5,122.158 53.666,128.825 53.5,135.5C51.055,136.312 48.722,137.312 46.5,138.5C45.801,130.865 45.134,123.198 44.5,115.5C46.315,114.37 48.315,113.704 50.5,113.5Z" style="fill:rgb(172,171,171);fill-opacity:0.84;"/>
    </g>
    <g transform="matrix(1,0,0,1,0.5,-46)">
        <path d="M126.5,112.5C129.437,113.472 132.103,114.805 134.5,116.5C132.791,121.917 131.791,127.584 131.5,133.5C128.458,133.267 125.792,132.267 123.5,130.5C124.117,130.389 124.617,130.056 125,129.5C125.258,123.785 125.758,118.118 126.5,112.5Z" style="fill:rgb(115,149,161);fill-opacity:0.85;"/>
    </g>
    <g transform="matrix(1,0,0,1,0.5,-46)">
        <path d="M157.5,113.5L157.5,116.5L152.5,116.5C153.3,114.259 154.966,113.259 157.5,113.5Z" style="fill:rgb(72,135,168);fill-opacity:0.32;"/>
    </g>
    <g transform="matrix(1,0,0,1,0.5,-46)">
        <path d="M157.5,113.5L159.5,113.5L159.5,116.5L183.5,116.5C174.676,117.33 165.676,117.83 156.5,118C154.675,119.466 154.175,121.299 155,123.5C157.947,124.664 160.447,126.33 162.5,128.5L162.5,129.5L156.5,129.5L156.5,126.5L152.5,126.5L152.5,124.5C153.833,122.5 153.833,120.5 152.5,118.5L152.5,116.5L157.5,116.5L157.5,113.5Z" style="fill:rgb(73,138,164);fill-opacity:0.69;"/>
    </g>
    <g transform="matrix(1,0,0,1,0.5,-46)">
        <path d="M159.5,113.5C167.507,113.334 175.507,113.5 183.5,114C184.056,114.383 184.389,114.883 184.5,115.5C183.833,115.5 183.5,115.833 183.5,116.5L159.5,116.5L159.5,113.5Z" style="fill:rgb(72,136,169);fill-opacity:0.25;"/>
    </g>
    <g transform="matrix(1,0,0,1,0.5,-46)">
        <path d="M283.5,113.5L283.5,116.5L258.5,116.5C258.5,115.833 258.167,115.5 257.5,115.5C257.611,114.883 257.944,114.383 258.5,114C266.827,113.5 275.16,113.334 283.5,113.5Z" style="fill:rgb(72,136,169);fill-opacity:0.25;"/>
    </g>
    <g transform="matrix(1,0,0,1,0.5,-46)">
        <path d="M283.5,113.5L287.5,113.5C287.414,114.496 287.748,115.329 288.5,116C293.155,116.499 297.821,116.666 302.5,116.5C287.833,117.833 273.167,117.833 258.5,116.5L283.5,116.5L283.5,113.5Z" style="fill:rgb(73,138,164);fill-opacity:0.77;"/>
    </g>
    <g transform="matrix(1,0,0,1,0.5,-46)">
        <path d="M287.5,113.5C292.511,113.334 297.511,113.501 302.5,114C303.056,114.383 303.389,114.883 303.5,115.5C302.833,115.5 302.5,115.833 302.5,116.5C297.821,116.666 293.155,116.499 288.5,116C287.748,115.329 287.414,114.496 287.5,113.5Z" style="fill:rgb(72,136,169);fill-opacity:0.22;"/>
    </g>
    <g transform="matrix(1,0,0,1,0.5,-46)">
        <path d="M44.5,115.5C45.134,123.198 45.801,130.865 46.5,138.5C44.66,140.669 42.326,142.002 39.5,142.5C39.61,134.35 39.61,126.35 39.5,118.5C41.001,117.248 42.667,116.248 44.5,115.5Z" style="fill:rgb(178,177,177);fill-opacity:0.77;"/>
    </g>
    <g transform="matrix(1,0,0,1,0.5,-46)">
        <path d="M184.5,115.5L188.5,115.5C188.36,117.124 189.027,118.29 190.5,119C199.5,119.667 208.5,119.667 217.5,119C218.056,118.617 218.389,118.117 218.5,117.5C219.167,117.5 219.5,117.167 219.5,116.5L220.5,116.5C221.29,117.401 222.29,118.068 223.5,118.5C232.324,119.657 241.324,119.824 250.5,119C252.426,118.578 253.426,117.411 253.5,115.5L257.5,115.5C258.167,115.5 258.5,115.833 258.5,116.5C273.167,117.833 287.833,117.833 302.5,116.5C304.911,119.45 307.911,120.117 311.5,118.5C314.234,120.236 317.234,121.236 320.5,121.5C324.167,121.497 327.501,122.497 330.5,124.5C331.183,124.137 331.85,123.804 332.5,123.5L333.5,123.5C333.5,124.833 334.167,125.5 335.5,125.5L336.5,125.5C338.529,128.527 341.196,130.86 344.5,132.5C354.192,140.216 361.192,149.882 365.5,161.5L367.5,161.5L367.5,162.5C366.102,165.007 366.436,167.34 368.5,169.5L368.5,170.5C369.489,184.376 365.989,197.042 358,208.5C346.637,222.876 332.137,232.376 314.5,237C311.183,238.085 310.849,239.585 313.5,241.5C328.32,244.625 342.653,250.125 356.5,258C368.716,266.327 377.716,277.161 383.5,290.5C384.183,294.413 385.183,298.247 386.5,302C385.203,306.83 385.203,311.663 386.5,316.5C386.64,318.03 387.307,319.03 388.5,319.5L388.5,323.5C386.592,324.486 385.592,326.152 385.5,328.5C381.74,337.354 377.24,346.354 372,355.5C365.53,362.814 358.363,369.148 350.5,374.5C350.5,375.167 350.167,375.5 349.5,375.5C342.887,377.872 336.387,380.538 330,383.5C329.667,383.167 329.333,382.833 329,382.5C325.688,383.976 322.188,384.81 318.5,385C317.663,386.011 317.33,387.178 317.5,388.5L316.5,388.5C315.426,386.784 313.759,385.784 311.5,385.5C307.405,385.773 303.738,386.773 300.5,388.5L292.5,388.5C292.389,387.883 292.056,387.383 291.5,387C284.983,386.686 278.483,386.186 272,385.5C267.043,385.615 262.543,386.615 258.5,388.5L251.5,388.5C251.67,387.178 251.337,386.011 250.5,385C233.5,384.333 216.5,384.333 199.5,385C198.663,386.011 198.33,387.178 198.5,388.5L193.5,388.5C193.389,387.883 193.056,387.383 192.5,387C189.023,386.337 185.523,385.837 182,385.5C175.086,385.637 168.586,386.637 162.5,388.5L155.5,388.5C155.277,386.658 154.943,384.825 154.5,383C154.439,381.289 155.106,379.956 156.5,379C166.618,377.478 176.618,375.145 186.5,372C188.319,371.26 189.652,370.093 190.5,368.5C190.81,366.856 191.81,365.856 193.5,365.5C194.15,365.196 194.817,364.863 195.5,364.5C196.607,361.096 197.774,357.763 199,354.5C199.667,327.5 199.667,300.5 199,273.5C197.841,272.434 197.008,278.767 196.5,280.5C196.5,281.167 196.167,281.5 195.5,281.5C174.977,284.453 154.31,286.62 133.5,288C106.387,291.514 79.721,297.014 53.5,304.5C45.818,307.942 38.484,311.942 31.5,316.5C28.833,317.167 27.167,318.833 26.5,321.5C25.994,323.429 24.994,325.095 23.5,326.5C25.633,328.091 27.299,330.091 28.5,332.5C40.24,340.074 53.074,344.408 67,345.5C77.489,343.768 88.156,342.768 99,342.5C102.027,342.382 104.861,342.882 107.5,344C87.007,354.662 65.007,358.996 41.5,357C14.205,349.565 6.371,332.732 18,306.5C19.376,305.295 20.542,303.962 21.5,302.5C24.167,301.833 25.833,300.167 26.5,297.5C36.841,290.002 48.174,284.502 60.5,281C84.649,274.674 109.316,271.507 134.5,271.5C154.836,272.5 175.17,273.5 195.5,274.5C196.167,274.5 196.5,274.833 196.5,275.5C196.56,276.043 196.893,270.376 197.5,270.5C198.833,264.5 198.833,258.5 197.5,252.5C196.893,252.624 196.56,252.957 196.5,253.5L178.5,253.5L178.5,232.5L195.5,232.5C195.5,233.167 195.833,233.5 196.5,233.5C196.56,234.043 196.893,234.376 197.5,234.5C198.665,227.189 198.831,219.856 198,212.5C197.283,213.044 196.783,213.711 196.5,214.5C195.833,214.5 195.5,214.833 195.5,215.5C173.005,217.706 150.338,219.04 127.5,219.5C109.28,220.08 91.614,217.58 74.5,212C61.64,207.844 52.473,199.677 47,187.5C44.778,180.283 45.278,173.283 48.5,166.5C52.022,161.812 56.689,160.312 62.5,162C63.337,163.011 63.67,164.178 63.5,165.5C56.046,166.119 52.213,170.119 52,177.5C56.444,187.337 63.944,193.837 74.5,197C86.332,200.145 98.332,202.145 110.5,203C138.975,203.859 167.308,205.026 195.5,206.5C195.5,207.167 195.833,207.5 196.5,207.5L196.5,208.5C197.209,209.404 198.209,209.737 199.5,209.5C199.667,189.164 199.5,168.831 199,148.5C197.256,147.351 197.089,146.017 198.5,144.5C197.388,142.581 196.054,140.914 194.5,139.5C192.353,137.263 190.02,135.263 187.5,133.5C185.496,131.81 183.163,130.476 180.5,129.5C179.833,129.833 179.167,130.167 178.5,130.5C175.591,129.028 172.591,127.862 169.5,127C167.5,126.333 165.5,126.333 163.5,127C162.944,127.383 162.611,127.883 162.5,128.5C160.447,126.33 157.947,124.664 155,123.5C154.175,121.299 154.675,119.466 156.5,118C165.676,117.83 174.676,117.33 183.5,116.5C183.5,115.833 183.833,115.5 184.5,115.5ZM264.5,130.5L273.5,130.5C277.029,132.423 281.029,133.089 285.5,132.5L288.5,132.5C289.568,133.434 290.901,133.768 292.5,133.5L293.5,133.5C297.634,135.731 301.968,137.731 306.5,139.5C308.479,142.146 310.812,144.479 313.5,146.5C315.559,149.541 317.559,152.541 319.5,155.5L319.5,156.5C319.285,158.179 319.952,159.179 321.5,159.5C321.205,161.735 321.539,163.735 322.5,165.5L322.5,194.5C321.539,196.265 321.205,198.265 321.5,200.5L321.5,201.5C319.824,202.183 319.157,203.517 319.5,205.5L319.5,206.5C317.315,210.71 314.649,214.71 311.5,218.5C307.388,221.863 303.388,225.196 299.5,228.5L298.5,228.5C295.364,228.603 292.698,229.603 290.5,231.5L289.5,231.5C287.265,231.205 285.265,231.539 283.5,232.5L241.5,232.5L241.5,144.5C243.104,143.713 243.771,142.38 243.5,140.5L243.5,139.5C246.621,136.803 249.955,134.47 253.5,132.5L256.5,132.5C258.857,132.663 261.19,132.497 263.5,132C264.056,131.617 264.389,131.117 264.5,130.5ZM241.5,250.5L296.5,250.5C297.552,252.256 299.219,252.923 301.5,252.5C303.379,253.341 305.379,253.675 307.5,253.5C307.821,255.048 308.821,255.715 310.5,255.5C311.708,256.234 313.041,256.567 314.5,256.5C316.896,258.768 319.562,260.768 322.5,262.5C322.5,263.833 323.167,264.5 324.5,264.5C328.216,268.548 331.55,272.882 334.5,277.5C334.427,279.027 335.094,280.027 336.5,280.5C336.464,283.461 337.464,285.794 339.5,287.5L339.5,288.5C339.216,290.415 339.549,292.081 340.5,293.5L340.5,295.5C339.911,299.971 340.577,303.971 342.5,307.5L342.5,308.5C341.883,308.611 341.383,308.944 341,309.5C340.501,313.152 340.335,316.818 340.5,320.5L340.5,324.5C339.549,325.919 339.216,327.585 339.5,329.5C337.3,334.671 335.3,340.005 333.5,345.5C331.554,346.035 330.554,347.368 330.5,349.5C328.738,350.262 327.738,351.596 327.5,353.5C324.167,355.5 321.5,358.167 319.5,361.5C316.503,363.267 313.837,365.267 311.5,367.5C307.463,368.065 303.797,369.399 300.5,371.5L298.5,371.5C296.302,371.12 294.635,371.787 293.5,373.5L270.5,373.5C270.389,372.883 270.056,372.383 269.5,372C267.527,371.505 265.527,371.338 263.5,371.5L261.5,371.5C260.432,370.566 259.099,370.232 257.5,370.5L256.5,370.5C255.216,368.386 253.216,367.386 250.5,367.5C250.5,365.5 249.5,364.5 247.5,364.5C246.167,362.167 244.833,359.833 243.5,357.5C243.771,355.62 243.104,354.287 241.5,353.5L241.5,250.5Z" style="fill:rgb(73,138,161);fill-opacity:0.94;"/>
    </g>
    <g transform="matrix(1,0,0,1,0.5,-46)">
        <path d="M188.5,115.5L197.5,115.5C204.087,117.461 211.087,118.128 218.5,117.5C218.389,118.117 218.056,118.617 217.5,119C208.5,119.667 199.5,119.667 190.5,119C189.027,118.29 188.36,117.124 188.5,115.5Z" style="fill:rgb(73,138,164);fill-opacity:0.78;"/>
    </g>
    <g transform="matrix(1,0,0,1,0.5,-46)">
        <path d="M197.5,115.5C205.019,115.175 212.352,115.508 219.5,116.5C219.5,117.167 219.167,117.5 218.5,117.5C211.087,118.128 204.087,117.461 197.5,115.5Z" style="fill:rgb(73,134,170);fill-opacity:0.18;"/>
    </g>
    <g transform="matrix(1,0,0,1,0.5,-46)">
        <path d="M244.5,115.5C243.848,116.725 242.681,117.392 241,117.5C235.196,118.331 229.362,118.665 223.5,118.5C222.29,118.068 221.29,117.401 220.5,116.5C228.414,115.533 236.414,115.199 244.5,115.5Z" style="fill:rgb(73,135,169);fill-opacity:0.18;"/>
    </g>
    <g transform="matrix(1,0,0,1,0.5,-46)">
        <path d="M244.5,115.5L253.5,115.5C253.426,117.411 252.426,118.578 250.5,119C241.324,119.824 232.324,119.657 223.5,118.5C229.362,118.665 235.196,118.331 241,117.5C242.681,117.392 243.848,116.725 244.5,115.5Z" style="fill:rgb(73,138,164);fill-opacity:0.75;"/>
    </g>
    <g transform="matrix(1,0,0,1,0.5,-46)">
        <path d="M302.5,116.5C302.5,115.833 302.833,115.5 303.5,115.5L307.5,115.5C308.134,116.947 309.301,117.613 311,117.5C312.07,117.472 312.903,117.139 313.5,116.5L314.5,116.5L314.5,119.5C317.082,119.025 319.082,119.692 320.5,121.5C317.234,121.236 314.234,120.236 311.5,118.5C307.911,120.117 304.911,119.45 302.5,116.5Z" style="fill:rgb(73,138,164);fill-opacity:0.69;"/>
    </g>
    <g transform="matrix(1,0,0,1,0.5,-46)">
        <path d="M307.5,115.5C309.735,115.205 311.735,115.539 313.5,116.5C312.903,117.139 312.07,117.472 311,117.5C309.301,117.613 308.134,116.947 307.5,115.5Z" style="fill:rgb(73,134,170);fill-opacity:0.13;"/>
    </g>
    <g transform="matrix(1,0,0,1,0.5,-46)">
        <path d="M134.5,116.5C137.024,117.592 139.357,118.926 141.5,120.5C141.109,126.733 140.109,132.733 138.5,138.5C136.039,137.013 133.705,135.346 131.5,133.5C131.791,127.584 132.791,121.917 134.5,116.5Z" style="fill:rgb(110,148,161);fill-opacity:0.78;"/>
    </g>
    <g transform="matrix(1,0,0,1,0.5,-46)">
        <path d="M39.5,118.5C39.61,126.35 39.61,134.35 39.5,142.5C38.965,144.446 37.632,145.446 35.5,145.5C35.217,144.711 34.717,144.044 34,143.5C32.943,135.605 33.443,127.938 35.5,120.5C36.605,119.4 37.938,118.733 39.5,118.5Z" style="fill:rgb(184,183,183);fill-opacity:0.8;"/>
    </g>
    <g transform="matrix(1,0,0,1,0.5,-46)">
        <path d="M152.5,118.5C153.833,120.5 153.833,122.5 152.5,124.5C149.833,122.5 149.833,120.5 152.5,118.5Z" style="fill:rgb(73,134,170);fill-opacity:0.11;"/>
    </g>
    <g transform="matrix(1,0,0,1,0.5,-46)">
        <path d="M314.5,116.5C317.721,117.505 321.054,118.339 324.5,119C327.557,119.916 330.224,121.416 332.5,123.5C331.85,123.804 331.183,124.137 330.5,124.5C327.501,122.497 324.167,121.497 320.5,121.5C319.082,119.692 317.082,119.025 314.5,119.5L314.5,116.5Z" style="fill:rgb(72,136,167);fill-opacity:0.35;"/>
    </g>
    <g transform="matrix(1,0,0,1,0.5,-46)">
        <path d="M141.5,120.5C144.167,123.167 146.833,125.833 149.5,128.5C149.486,133.951 149.32,139.618 149,145.5C148.487,146.527 147.987,147.527 147.5,148.5C144.878,144.875 141.878,141.542 138.5,138.5C140.109,132.733 141.109,126.733 141.5,120.5Z" style="fill:rgb(103,147,161);fill-opacity:0.73;"/>
    </g>
    <g transform="matrix(1,0,0,1,0.5,-46)">
        <path d="M35.5,120.5C33.443,127.938 32.943,135.605 34,143.5C34.717,144.044 35.217,144.711 35.5,145.5C34.215,147.452 32.549,149.118 30.5,150.5C29.883,150.389 29.383,150.056 29,149.5C29.135,142.095 28.302,135.095 26.5,128.5C26.414,127.504 26.748,126.671 27.5,126C30.276,124.253 32.943,122.42 35.5,120.5Z" style="fill:rgb(190,190,189);fill-opacity:0.77;"/>
    </g>
    <g transform="matrix(1,0,0,1,0.5,-46)">
        <path d="M333.5,123.5C334.833,123.5 335.5,124.167 335.5,125.5C335.5,124.167 334.833,123.5 333.5,123.5Z" style="fill:rgb(72,136,169);fill-opacity:0.15;"/>
    </g>
    <g transform="matrix(1,0,0,1,0.5,-46)">
        <path d="M152.5,126.5L156.5,126.5L156.5,129.5C154.368,129.446 153.035,128.446 152.5,126.5Z" style="fill:rgb(73,135,170);fill-opacity:0.12;"/>
    </g>
    <g transform="matrix(1,0,0,1,0.5,-46)">
        <path d="M187.5,133.5C186.167,133.5 185.5,134.167 185.5,135.5C183.678,135.169 182.011,134.502 180.5,133.5C179.947,131.448 178.947,131.115 177.5,132.5L174.5,132.5L174.5,129.5C172.784,129.629 171.117,129.962 169.5,130.5L167.5,130.5C166.448,128.744 164.781,128.077 162.5,128.5C162.611,127.883 162.944,127.383 163.5,127C165.5,126.333 167.5,126.333 169.5,127C172.591,127.862 175.591,129.028 178.5,130.5C179.167,130.167 179.833,129.833 180.5,129.5C183.163,130.476 185.496,131.81 187.5,133.5Z" style="fill:rgb(73,137,165);fill-opacity:0.67;"/>
    </g>
    <g transform="matrix(1,0,0,1,0.5,-46)">
        <path d="M149.5,128.5C158.822,138.021 161.656,149.355 158,162.5C156.038,167.583 153.538,172.25 150.5,176.5C149.861,172.179 148.861,167.846 147.5,163.5C147.571,160.689 148.238,158.022 149.5,155.5C148.063,153.423 147.396,151.09 147.5,148.5C147.987,147.527 148.487,146.527 149,145.5C149.32,139.618 149.486,133.951 149.5,128.5Z" style="fill:rgb(96,145,161);fill-opacity:0.67;"/>
    </g>
    <g transform="matrix(1,0,0,1,0.5,-46)">
        <path d="M162.5,128.5C164.781,128.077 166.448,128.744 167.5,130.5C165.585,130.784 163.919,130.451 162.5,129.5L162.5,128.5Z" style="fill:rgb(72,134,170);fill-opacity:0.17;"/>
    </g>
    <g transform="matrix(1,0,0,1,0.5,-46)">
        <path d="M264.5,130.5C261.904,129.735 259.237,129.401 256.5,129.5L256.5,132.5L253.5,132.5C253.265,131.903 252.765,131.57 252,131.5C248.802,132.232 245.969,133.565 243.5,135.5C245.582,132.056 248.416,130.39 252,130.5C253.822,128.955 255.989,128.288 258.5,128.5C260.167,128.667 261.833,128.833 263.5,129C264.056,129.383 264.389,129.883 264.5,130.5Z" style="fill:rgb(73,137,164);fill-opacity:0.71;"/>
    </g>
    <g transform="matrix(1,0,0,1,0.5,-46)">
        <path d="M336.5,125.5C341.021,127.074 345.021,129.408 348.5,132.5C347.298,133.405 345.964,133.405 344.5,132.5C341.196,130.86 338.529,128.527 336.5,125.5Z" style="fill:rgb(72,135,167);fill-opacity:0.5;"/>
    </g>
    <g transform="matrix(1,0,0,1,0.5,-46)">
        <path d="M26.5,128.5C28.302,135.095 29.135,142.095 29,149.5C29.383,150.056 29.883,150.389 30.5,150.5C29.167,152.5 27.5,154.167 25.5,155.5C24.883,155.389 24.383,155.056 24,154.5C24.139,146.435 23.305,138.768 21.5,131.5C22.3,129.259 23.966,128.259 26.5,128.5Z" style="fill:rgb(196,196,194);fill-opacity:0.79;"/>
    </g>
    <g transform="matrix(1,0,0,1,0.5,-46)">
        <path d="M174.5,132.5C172.302,132.88 170.635,132.213 169.5,130.5C171.117,129.962 172.784,129.629 174.5,129.5L174.5,132.5Z" style="fill:rgb(73,134,171);fill-opacity:0.14;"/>
    </g>
    <g transform="matrix(1,0,0,1,0.5,-46)">
        <path d="M264.5,130.5C264.389,131.117 264.056,131.617 263.5,132C261.19,132.497 258.857,132.663 256.5,132.5L256.5,129.5C259.237,129.401 261.904,129.735 264.5,130.5Z" style="fill:rgb(73,134,170);fill-opacity:0.18;"/>
    </g>
    <g transform="matrix(1,0,0,1,0.5,-46)">
        <path d="M273.5,129.5L285.5,129.5L285.5,132.5C281.029,133.089 277.029,132.423 273.5,130.5L273.5,129.5Z" style="fill:rgb(72,135,169);fill-opacity:0.18;"/>
    </g>
    <g transform="matrix(1,0,0,1,0.5,-46)">
        <path d="M273.5,129.5C279.711,128.489 285.877,128.489 292,129.5C309.601,133.768 320.435,144.601 324.5,162C324.472,163.07 324.139,163.903 323.5,164.5C323.88,162.302 323.213,160.635 321.5,159.5C321.715,157.821 321.048,156.821 319.5,156.5L319.5,155.5C318.494,151.674 317.161,148.008 315.5,144.5C312.822,143.999 310.822,142.499 309.5,140C308.552,139.517 307.552,139.351 306.5,139.5C303.27,137.174 299.937,134.841 296.5,132.5C295.583,133.127 294.583,133.461 293.5,133.5L292.5,133.5C292.38,132.414 291.713,131.747 290.5,131.5C289.584,131.543 288.917,131.876 288.5,132.5L285.5,132.5L285.5,129.5L273.5,129.5Z" style="fill:rgb(73,137,164);fill-opacity:0.81;"/>
    </g>
    <g transform="matrix(1,0,0,1,0.5,-46)">
        <path d="M180.5,133.5C179.209,133.737 178.209,133.404 177.5,132.5C178.947,131.115 179.947,131.448 180.5,133.5Z" style="fill:rgb(72,134,170);fill-opacity:0.16;"/>
    </g>
    <g transform="matrix(1,0,0,1,0.5,-46)">
        <path d="M253.5,132.5C249.955,134.47 246.621,136.803 243.5,139.5C242.646,138.368 242.646,137.035 243.5,135.5C245.969,133.565 248.802,132.232 252,131.5C252.765,131.57 253.265,131.903 253.5,132.5Z" style="fill:rgb(72,136,168);fill-opacity:0.27;"/>
    </g>
    <g transform="matrix(1,0,0,1,0.5,-46)">
        <path d="M292.5,133.5C290.901,133.768 289.568,133.434 288.5,132.5C288.917,131.876 289.584,131.543 290.5,131.5C291.713,131.747 292.38,132.414 292.5,133.5Z" style="fill:rgb(73,135,169);fill-opacity:0.14;"/>
    </g>
    <g transform="matrix(1,0,0,1,0.5,-46)">
        <path d="M21.5,131.5C23.305,138.768 24.139,146.435 24,154.5C24.383,155.056 24.883,155.389 25.5,155.5C23.462,158.526 21.462,161.526 19.5,164.5C18.883,164.389 18.383,164.056 18,163.5C17.781,154.12 17.281,144.787 16.5,135.5C17.853,133.817 19.52,132.484 21.5,131.5Z" style="fill:rgb(202,202,201);fill-opacity:0.79;"/>
    </g>
    <g transform="matrix(1,0,0,1,0.5,-46)">
        <path d="M306.5,139.5C301.968,137.731 297.634,135.731 293.5,133.5C294.583,133.461 295.583,133.127 296.5,132.5C299.937,134.841 303.27,137.174 306.5,139.5Z" style="fill:rgb(73,134,170);fill-opacity:0.1;"/>
    </g>
    <g transform="matrix(1,0,0,1,0.5,-46)">
        <path d="M349.5,132.5C353.234,135.231 356.234,138.564 358.5,142.5C354.593,140.045 351.593,136.712 349.5,132.5Z" style="fill:rgb(73,134,170);fill-opacity:0.04;"/>
    </g>
    <g transform="matrix(1,0,0,1,0.5,-46)">
        <path d="M16.5,135.5C17.281,144.787 17.781,154.12 18,163.5C18.383,164.056 18.883,164.389 19.5,164.5C17.641,167.912 16.474,171.578 16,175.5C15.617,176.056 15.117,176.389 14.5,176.5C13.689,165.576 13.189,154.576 13,143.5C12.722,142.584 12.222,141.918 11.5,141.5C12.82,139.183 14.486,137.183 16.5,135.5Z" style="fill:rgb(209,208,207);fill-opacity:0.7;"/>
    </g>
    <g transform="matrix(1,0,0,1,0.5,-46)">
        <path d="M344.5,132.5C345.964,133.405 347.298,133.405 348.5,132.5L349.5,132.5C351.593,136.712 354.593,140.045 358.5,142.5C359.167,143.167 359.833,143.833 360.5,144.5C359.903,144.735 359.57,145.235 359.5,146C362.768,150.72 364.768,155.887 365.5,161.5C361.192,149.882 354.192,140.216 344.5,132.5Z" style="fill:rgb(73,138,164);fill-opacity:0.69;"/>
    </g>
    <g transform="matrix(1,0,0,1,0.5,-46)">
        <path d="M194.5,139.5C196.054,140.914 197.388,142.581 198.5,144.5C197.089,146.017 197.256,147.351 199,148.5C199.5,168.831 199.667,189.164 199.5,209.5C198.209,209.737 197.209,209.404 196.5,208.5C197.832,199.859 198.498,190.859 198.5,181.5C198.5,172.327 198.166,163.327 197.5,154.5C197.5,153.167 196.833,152.5 195.5,152.5L195.5,148.5C196.139,147.903 196.472,147.07 196.5,146C195.582,143.914 194.915,141.747 194.5,139.5Z" style="fill:rgb(73,138,163);fill-opacity:0.8;"/>
    </g>
    <g transform="matrix(1,0,0,1,0.5,-46)">
        <path d="M306.5,139.5C307.552,139.351 308.552,139.517 309.5,140C310.822,142.499 312.822,143.999 315.5,144.5C317.161,148.008 318.494,151.674 319.5,155.5C317.559,152.541 315.559,149.541 313.5,146.5C310.812,144.479 308.479,142.146 306.5,139.5Z" style="fill:rgb(72,135,170);fill-opacity:0.1;"/>
    </g>
    <g transform="matrix(1,0,0,1,0.5,-46)">
        <path d="M243.5,140.5C243.771,142.38 243.104,143.713 241.5,144.5C241.157,142.517 241.824,141.183 243.5,140.5Z" style="fill:rgb(73,133,171);fill-opacity:0.06;"/>
    </g>
    <g transform="matrix(1,0,0,1,0.5,-46)">
        <path d="M187.5,133.5C190.02,135.263 192.353,137.263 194.5,139.5C194.915,141.747 195.582,143.914 196.5,146C196.472,147.07 196.139,147.903 195.5,148.5C193.849,142.86 190.515,138.527 185.5,135.5C185.5,134.167 186.167,133.5 187.5,133.5Z" style="fill:rgb(72,136,168);fill-opacity:0.4;"/>
    </g>
    <g transform="matrix(1,0,0,1,0.5,-46)">
        <path d="M11.5,141.5C12.222,141.918 12.722,142.584 13,143.5C13.189,154.576 13.689,165.576 14.5,176.5L14.5,179.5C13.521,191.42 13.188,203.42 13.5,215.5L10.5,215.5C8.738,214.738 7.738,213.404 7.5,211.5C8.222,211.082 8.722,210.416 9,209.5C9.667,189.5 9.667,169.5 9,149.5C8.283,148.956 7.783,148.289 7.5,147.5C8.449,145.223 9.782,143.223 11.5,141.5Z" style="fill:rgb(214,213,213);fill-opacity:0.89;"/>
    </g>
    <g transform="matrix(1,0,0,1,0.5,-46)">
        <path d="M243.5,135.5C242.646,137.035 242.646,138.368 243.5,139.5L243.5,140.5C241.824,141.183 241.157,142.517 241.5,144.5L241.5,145.5C239.508,174.815 238.841,204.481 239.5,234.5C238.833,234.5 238.5,234.167 238.5,233.5C238.821,204.302 238.488,175.135 237.5,146C238.488,141.809 240.488,138.309 243.5,135.5Z" style="fill:rgb(73,137,165);fill-opacity:0.65;"/>
    </g>
    <g transform="matrix(1,0,0,1,0.5,-46)">
        <path d="M241.5,145.5L241.5,232.5L279.5,232.5C279.119,233.931 278.119,234.764 276.5,235C263.993,235.827 251.66,235.66 239.5,234.5C238.841,204.481 239.508,174.815 241.5,145.5Z" style="fill:rgb(73,134,170);fill-opacity:0.17;"/>
    </g>
    <g transform="matrix(1,0,0,1,0.5,-46)">
        <path d="M7.5,147.5C7.783,148.289 8.283,148.956 9,149.5C9.667,169.5 9.667,189.5 9,209.5C8.722,210.416 8.222,211.082 7.5,211.5C5.278,208.858 3.611,205.858 2.5,202.5C3.268,201.737 3.768,200.737 4,199.5C4.167,192.833 4.333,186.167 4.5,179.5C4.131,172.126 4.131,164.96 4.5,158C3.934,157.005 3.267,156.172 2.5,155.5C3.669,152.489 5.336,149.822 7.5,147.5Z" style="fill:rgb(221,220,220);fill-opacity:0.84;"/>
    </g>
    <g transform="matrix(1,0,0,1,0.5,-46)">
        <path d="M360.5,144.5C363.246,147.72 365.246,151.387 366.5,155.5C366.517,157.565 366.85,159.565 367.5,161.5L365.5,161.5C364.768,155.887 362.768,150.72 359.5,146C359.57,145.235 359.903,144.735 360.5,144.5Z" style="fill:rgb(72,136,168);fill-opacity:0.39;"/>
    </g>
    <g transform="matrix(1,0,0,1,0.5,-46)">
        <path d="M195.5,152.5C196.833,152.5 197.5,153.167 197.5,154.5C197.83,172.341 197.497,190.008 196.5,207.5C195.833,207.5 195.5,207.167 195.5,206.5L195.5,152.5Z" style="fill:rgb(73,134,170);fill-opacity:0.12;"/>
    </g>
    <g transform="matrix(1,0,0,1,0.5,-46)">
        <path d="M197.5,154.5C198.166,163.327 198.5,172.327 198.5,181.5C198.498,190.859 197.832,199.859 196.5,208.5L196.5,207.5C197.497,190.008 197.83,172.341 197.5,154.5Z" style="fill:rgb(73,136,167);fill-opacity:0.49;"/>
    </g>
    <g transform="matrix(1,0,0,1,0.5,-46)">
        <path d="M2.5,155.5C3.267,156.172 3.934,157.005 4.5,158C4.131,164.96 4.131,172.126 4.5,179.5C4.333,186.167 4.167,192.833 4,199.5C3.768,200.737 3.268,201.737 2.5,202.5C1.9,201.1 0.9,200.1 -0.5,199.5L-0.5,160.5C1.223,159.395 2.223,157.728 2.5,155.5Z" style="fill:rgb(228,227,228);fill-opacity:0.7;"/>
    </g>
    <g transform="matrix(1,0,0,1,0.5,-46)">
        <path d="M366.5,155.5C368.4,158.518 369.733,161.851 370.5,165.5L367.5,165.5L367.5,161.5C366.85,159.565 366.517,157.565 366.5,155.5Z" style="fill:rgb(72,134,170);fill-opacity:0.11;"/>
    </g>
    <g transform="matrix(1,0,0,1,0.5,-46)">
        <path d="M319.5,156.5C321.048,156.821 321.715,157.821 321.5,159.5C319.952,159.179 319.285,158.179 319.5,156.5Z" style="fill:rgb(72,135,169);fill-opacity:0.14;"/>
    </g>
    <g transform="matrix(1,0,0,1,0.5,-46)">
        <path d="M321.5,159.5C323.213,160.635 323.88,162.302 323.5,164.5C322.833,164.5 322.5,164.833 322.5,165.5C321.539,163.735 321.205,161.735 321.5,159.5Z" style="fill:rgb(72,136,168);fill-opacity:0.15;"/>
    </g>
    <g transform="matrix(1,0,0,1,0.5,-46)">
        <path d="M147.5,163.5C148.861,167.846 149.861,172.179 150.5,176.5C147.811,182.035 144.478,187.202 140.5,192C139.552,192.483 138.552,192.649 137.5,192.5C137.344,189.934 137.678,187.434 138.5,185C142.409,178.079 145.409,170.912 147.5,163.5Z" style="fill:rgb(103,146,160);fill-opacity:0.37;"/>
    </g>
    <g transform="matrix(1,0,0,1,0.5,-46)">
        <path d="M367.5,162.5L367.5,165.5L370.5,165.5L370.5,168.5C369.833,168.833 369.167,169.167 368.5,169.5C366.436,167.34 366.102,165.007 367.5,162.5Z" style="fill:rgb(73,138,164);fill-opacity:0.49;"/>
    </g>
    <g transform="matrix(1,0,0,1,0.5,-46)">
        <path d="M322.5,169.5C323.821,172.598 324.488,176.098 324.5,180C324.488,183.902 323.821,187.402 322.5,190.5L322.5,169.5Z" style="fill:rgb(72,135,170);fill-opacity:0.23;"/>
    </g>
    <g transform="matrix(1,0,0,1,0.5,-46)">
        <path d="M14.5,179.5C15.117,179.611 15.617,179.944 16,180.5C16.501,184.51 17.001,188.51 17.5,192.5C16.806,202.153 16.139,211.82 15.5,221.5C13.086,220.089 11.419,218.089 10.5,215.5L13.5,215.5C13.188,203.42 13.521,191.42 14.5,179.5Z" style="fill:rgb(210,209,208);fill-opacity:0.65;"/>
    </g>
    <g transform="matrix(1,0,0,1,0.5,-46)">
        <path d="M323.5,164.5C325.322,166.571 326.322,169.071 326.5,172C325.194,177.505 325.194,183.005 326.5,188.5C324.809,199.466 321.309,209.799 316,219.5C315.329,220.252 314.496,220.586 313.5,220.5C316.925,216.162 318.925,211.496 319.5,206.5L319.5,205.5C321.176,204.817 321.843,203.483 321.5,201.5L321.5,200.5C323.729,198.901 324.062,196.901 322.5,194.5L322.5,190.5C323.821,187.402 324.488,183.902 324.5,180C324.488,176.098 323.821,172.598 322.5,169.5L322.5,165.5C322.5,164.833 322.833,164.5 323.5,164.5Z" style="fill:rgb(73,138,164);fill-opacity:0.71;"/>
    </g>
    <g transform="matrix(1,0,0,1,0.5,-46)">
        <path d="M370.5,168.5C372.34,178.687 371.507,188.687 368,198.5C367.26,200.319 366.093,201.652 364.5,202.5C365.573,197.613 367.24,192.946 369.5,188.5C368.543,182.561 368.21,176.561 368.5,170.5L368.5,169.5C369.167,169.167 369.833,168.833 370.5,168.5Z" style="fill:rgb(72,136,169);fill-opacity:0.28;"/>
    </g>
    <g transform="matrix(1,0,0,1,0.5,-46)">
        <path d="M17.5,192.5C19.515,194.219 21.182,196.219 22.5,198.5C21.726,206.786 21.226,215.12 21,223.5C20.617,224.056 20.117,224.389 19.5,224.5C18.128,223.488 16.795,222.488 15.5,221.5C16.139,211.82 16.806,202.153 17.5,192.5Z" style="fill:rgb(204,204,202);fill-opacity:0.83;"/>
    </g>
    <g transform="matrix(1,0,0,1,0.5,-46)">
        <path d="M322.5,194.5C324.062,196.901 323.729,198.901 321.5,200.5C321.205,198.265 321.539,196.265 322.5,194.5Z" style="fill:rgb(72,136,168);fill-opacity:0.48;"/>
    </g>
    <g transform="matrix(1,0,0,1,0.5,-46)">
        <path d="M22.5,198.5C24.509,200.543 26.509,202.543 28.5,204.5C27.883,204.611 27.383,204.944 27,205.5C26.737,213.533 26.237,221.533 25.5,229.5C23.122,228.308 21.122,226.641 19.5,224.5C20.117,224.389 20.617,224.056 21,223.5C21.226,215.12 21.726,206.786 22.5,198.5Z" style="fill:rgb(198,198,196);fill-opacity:0.77;"/>
    </g>
    <g transform="matrix(1,0,0,1,0.5,-46)">
        <path d="M321.5,201.5C321.843,203.483 321.176,204.817 319.5,205.5C319.157,203.517 319.824,202.183 321.5,201.5Z" style="fill:rgb(72,134,171);fill-opacity:0.17;"/>
    </g>
    <g transform="matrix(1,0,0,1,0.5,-46)">
        <path d="M364.5,202.5C364.741,205.034 363.741,206.7 361.5,207.5C361.592,205.152 362.592,203.486 364.5,202.5Z" style="fill:rgb(72,135,169);fill-opacity:0.1;"/>
    </g>
    <g transform="matrix(1,0,0,1,0.5,-46)">
        <path d="M28.5,204.5C30.859,206.529 33.192,208.529 35.5,210.5C35.217,211.289 34.717,211.956 34,212.5C33.233,220.215 33.4,227.882 34.5,235.5C31.328,233.748 28.328,231.748 25.5,229.5C26.237,221.533 26.737,213.533 27,205.5C27.383,204.944 27.883,204.611 28.5,204.5Z" style="fill:rgb(191,191,189);fill-opacity:0.81;"/>
    </g>
    <g transform="matrix(1,0,0,1,0.5,-46)">
        <path d="M35.5,210.5C36.833,211.167 38.167,211.833 39.5,212.5C39.225,221.221 39.558,229.887 40.5,238.5C38.517,237.529 36.517,236.529 34.5,235.5C33.4,227.882 33.233,220.215 34,212.5C34.717,211.956 35.217,211.289 35.5,210.5Z" style="fill:rgb(184,183,183);fill-opacity:0.85;"/>
    </g>
    <g transform="matrix(1,0,0,1,0.5,-46)">
        <path d="M39.5,212.5C42.203,214.181 44.87,215.847 47.5,217.5C46.883,217.611 46.383,217.944 46,218.5C45.5,225.826 45.334,233.159 45.5,240.5C43.716,240.107 42.05,239.441 40.5,238.5C39.558,229.887 39.225,221.221 39.5,212.5Z" style="fill:rgb(178,177,177);fill-opacity:0.79;"/>
    </g>
    <g transform="matrix(1,0,0,1,0.5,-46)">
        <path d="M196.5,233.5C197.833,227.167 197.833,220.833 196.5,214.5C196.783,213.711 197.283,213.044 198,212.5C198.831,219.856 198.665,227.189 197.5,234.5C196.893,234.376 196.56,234.043 196.5,233.5Z" style="fill:rgb(72,136,167);fill-opacity:0.48;"/>
    </g>
    <g transform="matrix(1,0,0,1,0.5,-46)">
        <path d="M361.5,208.5C358.281,214.391 353.948,219.391 348.5,223.5C351.117,219.87 353.784,216.203 356.5,212.5C357.897,210.763 359.564,209.429 361.5,208.5Z" style="fill:rgb(73,134,170);fill-opacity:0.06;"/>
    </g>
    <g transform="matrix(1,0,0,1,0.5,-46)">
        <path d="M196.5,214.5C197.833,220.833 197.833,227.167 196.5,233.5C195.833,233.5 195.5,233.167 195.5,232.5L195.5,215.5C195.5,214.833 195.833,214.5 196.5,214.5Z" style="fill:rgb(73,134,170);fill-opacity:0.12;"/>
    </g>
    <g transform="matrix(1,0,0,1,0.5,-46)">
        <path d="M47.5,217.5C50.063,218.088 52.396,219.088 54.5,220.5C53.764,228.121 53.097,235.787 52.5,243.5C50.278,242.312 47.945,241.312 45.5,240.5C45.334,233.159 45.5,225.826 46,218.5C46.383,217.944 46.883,217.611 47.5,217.5Z" style="fill:rgb(172,171,171);fill-opacity:0.83;"/>
    </g>
    <g transform="matrix(1,0,0,1,0.5,-46)">
        <path d="M319.5,206.5C318.925,211.496 316.925,216.162 313.5,220.5C312.272,221.306 311.272,222.306 310.5,223.5C306.882,224.352 304.216,226.352 302.5,229.5C301.209,229.737 300.209,229.404 299.5,228.5C303.388,225.196 307.388,221.863 311.5,218.5C314.649,214.71 317.315,210.71 319.5,206.5Z" style="fill:rgb(72,135,169);fill-opacity:0.1;"/>
    </g>
    <g transform="matrix(1,0,0,1,0.5,-46)">
        <path d="M54.5,220.5C57.109,220.4 59.442,221.067 61.5,222.5C62.437,230.445 62.77,238.445 62.5,246.5C59.373,245.003 56.039,244.003 52.5,243.5C53.097,235.787 53.764,228.121 54.5,220.5Z" style="fill:rgb(166,165,165);fill-opacity:0.83;"/>
    </g>
    <g transform="matrix(1,0,0,1,0.5,-46)">
        <path d="M310.5,223.5C308.732,226.59 306.065,228.59 302.5,229.5C304.216,226.352 306.882,224.352 310.5,223.5Z" style="fill:rgb(73,138,164);fill-opacity:0.83;"/>
    </g>
    <g transform="matrix(1,0,0,1,0.5,-46)">
        <path d="M346.5,224.5C344.428,227.893 341.428,230.226 337.5,231.5L337.5,228.5C340.905,227.962 343.905,226.629 346.5,224.5Z" style="fill:rgb(72,134,170);fill-opacity:0.06;"/>
    </g>
    <g transform="matrix(1,0,0,1,0.5,-46)">
        <path d="M61.5,222.5C66.444,224.037 71.444,225.37 76.5,226.5C76.731,234.209 76.398,241.876 75.5,249.5C71.392,247.859 67.059,246.859 62.5,246.5C62.77,238.445 62.437,230.445 61.5,222.5Z" style="fill:rgb(160,160,162);fill-opacity:0.86;"/>
    </g>
    <g transform="matrix(1,0,0,1,0.5,-46)">
        <path d="M76.5,226.5C79.785,226.21 82.785,226.877 85.5,228.5C86.392,235.791 86.726,243.124 86.5,250.5C82.846,250.058 79.179,249.724 75.5,249.5C76.398,241.876 76.731,234.209 76.5,226.5Z" style="fill:rgb(152,158,160);fill-opacity:0.84;"/>
    </g>
    <g transform="matrix(1,0,0,1,0.5,-46)">
        <path d="M368.5,170.5C368.21,176.561 368.543,182.561 369.5,188.5C367.24,192.946 365.573,197.613 364.5,202.5C362.592,203.486 361.592,205.152 361.5,207.5L361.5,208.5C359.564,209.429 357.897,210.763 356.5,212.5C353.784,216.203 351.117,219.87 348.5,223.5C348.158,224.338 347.492,224.672 346.5,224.5C343.905,226.629 340.905,227.962 337.5,228.5L337.5,231.5C336.85,231.196 336.183,230.863 335.5,230.5C331.787,232.721 327.954,234.721 324,236.5C322.149,235.463 320.983,236.13 320.5,238.5C317.001,238.259 316.668,239.092 319.5,241C320.928,241.579 322.262,241.412 323.5,240.5C324.552,242.256 326.219,242.923 328.5,242.5L329.5,242.5C329.804,244.796 330.804,245.129 332.5,243.5L334.5,243.5C334.821,245.048 335.821,245.715 337.5,245.5L338.5,245.5C338.937,247.074 339.937,248.241 341.5,249C347.916,251.237 353.749,254.404 359,258.5C359.383,257.944 359.883,257.611 360.5,257.5L361.5,257.5C363.129,262.11 366.129,265.443 370.5,267.5L372.5,267.5C374.041,271.639 376.708,274.639 380.5,276.5L380.5,277.5C379.619,280.011 380.619,281.678 383.5,282.5C383.157,284.483 383.824,285.817 385.5,286.5C384.194,287.467 383.527,288.801 383.5,290.5C377.716,277.161 368.716,266.327 356.5,258C342.653,250.125 328.32,244.625 313.5,241.5C310.849,239.585 311.183,238.085 314.5,237C332.137,232.376 346.637,222.876 358,208.5C365.989,197.042 369.489,184.376 368.5,170.5Z" style="fill:rgb(73,137,164);fill-opacity:0.8;"/>
    </g>
    <g transform="matrix(1,0,0,1,0.5,-46)">
        <path d="M85.5,228.5C88.713,228.19 91.713,228.523 94.5,229.5C93.197,237.136 93.197,244.803 94.5,252.5C92.18,250.774 89.513,250.107 86.5,250.5C86.726,243.124 86.392,235.791 85.5,228.5Z" style="fill:rgb(146,157,161);fill-opacity:0.88;"/>
    </g>
    <g transform="matrix(1,0,0,1,0.5,-46)">
        <path d="M298.5,228.5C296.584,230.977 293.917,231.977 290.5,231.5C292.698,229.603 295.364,228.603 298.5,228.5Z" style="fill:rgb(72,135,169);fill-opacity:0.1;"/>
    </g>
    <g transform="matrix(1,0,0,1,0.5,-46)">
        <path d="M298.5,228.5L299.5,228.5C300.209,229.404 301.209,229.737 302.5,229.5C299.825,230.918 296.992,232.251 294,233.5C290.435,235.043 286.935,235.876 283.5,236C268.5,236.667 253.5,236.667 238.5,236C237.226,235.023 237.226,234.189 238.5,233.5C238.5,234.167 238.833,234.5 239.5,234.5C251.66,235.66 263.993,235.827 276.5,235C278.119,234.764 279.119,233.931 279.5,232.5L283.5,232.5C286.012,234.179 288.012,233.845 289.5,231.5L290.5,231.5C293.917,231.977 296.584,230.977 298.5,228.5Z" style="fill:rgb(73,138,164);fill-opacity:0.77;"/>
    </g>
    <g transform="matrix(1,0,0,1,0.5,-46)">
        <path d="M94.5,229.5L100.5,229.5C101.833,237.167 101.833,244.833 100.5,252.5L94.5,252.5C93.197,244.803 93.197,237.136 94.5,229.5Z" style="fill:rgb(140,155,161);fill-opacity:0.86;"/>
    </g>
    <g transform="matrix(1,0,0,1,0.5,-46)">
        <path d="M100.5,229.5L106.5,229.5C108.393,236.932 109.06,244.599 108.5,252.5L100.5,252.5C101.833,244.833 101.833,237.167 100.5,229.5Z" style="fill:rgb(134,154,160);fill-opacity:0.81;"/>
    </g>
    <g transform="matrix(1,0,0,1,0.5,-46)">
        <path d="M106.5,229.5C110.253,231.139 114.253,231.806 118.5,231.5C118.764,238.89 118.43,246.223 117.5,253.5C114.455,253.492 111.455,253.159 108.5,252.5C109.06,244.599 108.393,236.932 106.5,229.5Z" style="fill:rgb(128,153,161);fill-opacity:0.84;"/>
    </g>
    <g transform="matrix(1,0,0,1,0.5,-46)">
        <path d="M337.5,231.5C332.421,235.242 326.754,237.575 320.5,238.5C320.983,236.13 322.149,235.463 324,236.5C327.954,234.721 331.787,232.721 335.5,230.5C336.183,230.863 336.85,231.196 337.5,231.5Z" style="fill:rgb(73,135,169);fill-opacity:0.09;"/>
    </g>
    <g transform="matrix(1,0,0,1,0.5,-46)">
        <path d="M118.5,231.5L126.5,231.5C125.204,238.846 125.204,246.18 126.5,253.5L117.5,253.5C118.43,246.223 118.764,238.89 118.5,231.5Z" style="fill:rgb(121,151,161);fill-opacity:0.82;"/>
    </g>
    <g transform="matrix(1,0,0,1,0.5,-46)">
        <path d="M132.5,231.5L136.5,231.5C137.183,233.176 138.517,233.843 140.5,233.5L140.5,253.5L132.5,253.5L132.5,231.5Z" style="fill:rgb(110,148,161);fill-opacity:0.88;"/>
    </g>
    <g transform="matrix(1,0,0,1,0.5,-46)">
        <path d="M136.5,231.5C140.869,231.467 145.202,231.8 149.5,232.5L149.5,253.5L140.5,253.5L140.5,233.5C138.517,233.843 137.183,233.176 136.5,231.5Z" style="fill:rgb(103,146,161);fill-opacity:0.89;"/>
    </g>
    <g transform="matrix(1,0,0,1,0.5,-46)">
        <path d="M283.5,232.5C285.265,231.539 287.265,231.205 289.5,231.5C288.012,233.845 286.012,234.179 283.5,232.5Z" style="fill:rgb(72,135,168);fill-opacity:0.14;"/>
    </g>
    <g transform="matrix(1,0,0,1,0.5,-46)">
        <path d="M126.5,231.5L132.5,231.5L132.5,253.5L126.5,253.5C125.204,246.18 125.204,238.846 126.5,231.5Z" style="fill:rgb(115,150,161);fill-opacity:0.94;"/>
    </g>
    <g transform="matrix(1,0,0,1,0.5,-46)">
        <rect x="149.5" y="232.5" width="7" height="21" style="fill:rgb(96,145,161);fill-opacity:0.88;"/>
    </g>
    <g transform="matrix(1,0,0,1,0.5,-46)">
        <path d="M156.5,232.5L164.5,232.5C162.666,239.276 161.999,246.276 162.5,253.5L156.5,253.5L156.5,232.5Z" style="fill:rgb(90,143,161);fill-opacity:0.92;"/>
    </g>
    <g transform="matrix(1,0,0,1,0.5,-46)">
        <path d="M164.5,232.5L170.5,232.5L170.5,253.5L162.5,253.5C161.999,246.276 162.666,239.276 164.5,232.5Z" style="fill:rgb(84,142,161);fill-opacity:0.88;"/>
    </g>
    <g transform="matrix(1,0,0,1,0.5,-46)">
        <rect x="170.5" y="232.5" width="8" height="21" style="fill:rgb(78,141,161);fill-opacity:0.85;"/>
    </g>
    <g transform="matrix(1,0,0,1,0.5,-46)">
        <path d="M320.5,238.5C321.5,239.167 322.5,239.833 323.5,240.5C322.262,241.412 320.928,241.579 319.5,241C316.668,239.092 317.001,238.259 320.5,238.5Z" style="fill:rgb(73,134,170);fill-opacity:0.14;"/>
    </g>
    <g transform="matrix(1,0,0,1,0.5,-46)">
        <path d="M323.5,240.5C325.698,240.12 327.365,240.787 328.5,242.5C326.219,242.923 324.552,242.256 323.5,240.5Z" style="fill:rgb(73,135,169);fill-opacity:0.1;"/>
    </g>
    <g transform="matrix(1,0,0,1,0.5,-46)">
        <path d="M329.5,242.5C330.791,242.263 331.791,242.596 332.5,243.5C330.804,245.129 329.804,244.796 329.5,242.5Z" style="fill:rgb(72,134,170);fill-opacity:0.26;"/>
    </g>
    <g transform="matrix(1,0,0,1,0.5,-46)">
        <path d="M334.5,243.5C336.179,243.285 337.179,243.952 337.5,245.5C335.821,245.715 334.821,245.048 334.5,243.5Z" style="fill:rgb(73,135,169);fill-opacity:0.06;"/>
    </g>
    <g transform="matrix(1,0,0,1,0.5,-46)">
        <path d="M338.5,245.5C347.034,247.443 354.368,251.443 360.5,257.5C359.883,257.611 359.383,257.944 359,258.5C353.749,254.404 347.916,251.237 341.5,249C339.937,248.241 338.937,247.074 338.5,245.5Z" style="fill:rgb(72,136,168);fill-opacity:0.3;"/>
    </g>
    <g transform="matrix(1,0,0,1,0.5,-46)">
        <path d="M321.5,258.5C319.254,257.545 316.921,256.878 314.5,256.5C313.041,256.567 311.708,256.234 310.5,255.5C310.179,253.952 309.179,253.285 307.5,253.5C305.379,253.675 303.379,253.341 301.5,252.5C300.448,250.744 298.781,250.077 296.5,250.5L294.5,250.5C287.03,249.169 279.196,248.502 271,248.5C262.804,248.502 254.97,249.169 247.5,250.5L240.5,250.5C240.158,249.662 239.492,249.328 238.5,249.5C247.809,248.168 257.476,247.501 267.5,247.5C277.167,247.667 286.833,247.833 296.5,248C305.908,249.076 314.241,252.576 321.5,258.5Z" style="fill:rgb(73,137,164);fill-opacity:0.72;"/>
    </g>
    <g transform="matrix(1,0,0,1,0.5,-46)">
        <path d="M294.5,250.5L247.5,250.5C254.97,249.169 262.804,248.502 271,248.5C279.196,248.502 287.03,249.169 294.5,250.5Z" style="fill:rgb(72,134,169);fill-opacity:0.26;"/>
    </g>
    <g transform="matrix(1,0,0,1,0.5,-46)">
        <path d="M238.5,249.5C239.492,249.328 240.158,249.662 240.5,250.5C239.502,283.662 239.168,316.996 239.5,350.5C238.596,349.791 238.263,348.791 238.5,347.5L238.5,249.5Z" style="fill:rgb(72,136,166);fill-opacity:0.65;"/>
    </g>
    <g transform="matrix(1,0,0,1,0.5,-46)">
        <path d="M240.5,250.5L241.5,250.5L241.5,351.5C240.833,351.167 240.167,350.833 239.5,350.5C239.168,316.996 239.502,283.662 240.5,250.5Z" style="fill:rgb(72,134,170);fill-opacity:0.19;"/>
    </g>
    <g transform="matrix(1,0,0,1,0.5,-46)">
        <path d="M296.5,250.5C298.781,250.077 300.448,250.744 301.5,252.5C299.219,252.923 297.552,252.256 296.5,250.5Z" style="fill:rgb(73,134,171);fill-opacity:0.11;"/>
    </g>
    <g transform="matrix(1,0,0,1,0.5,-46)">
        <path d="M196.5,253.5C196.56,252.957 196.893,252.624 197.5,252.5C198.833,258.5 198.833,264.5 197.5,270.5C196.893,270.376 196.56,270.043 196.5,269.5C197.833,264.167 197.833,258.833 196.5,253.5Z" style="fill:rgb(72,136,167);fill-opacity:0.47;"/>
    </g>
    <g transform="matrix(1,0,0,1,0.5,-46)">
        <path d="M195.5,253.5L196.5,253.5C197.833,258.833 197.833,264.167 196.5,269.5C196.5,268.833 196.167,268.5 195.5,268.5L195.5,253.5Z" style="fill:rgb(73,134,170);fill-opacity:0.12;"/>
    </g>
    <g transform="matrix(1,0,0,1,0.5,-46)">
        <path d="M307.5,253.5C309.179,253.285 310.179,253.952 310.5,255.5C308.821,255.715 307.821,255.048 307.5,253.5Z" style="fill:rgb(72,134,171);fill-opacity:0.09;"/>
    </g>
    <g transform="matrix(1,0,0,1,0.5,-46)">
        <path d="M314.5,256.5C316.921,256.878 319.254,257.545 321.5,258.5C322.5,259.833 323.5,261.167 324.5,262.5L322.5,262.5C319.562,260.768 316.896,258.768 314.5,256.5Z" style="fill:rgb(72,135,168);fill-opacity:0.4;"/>
    </g>
    <g transform="matrix(1,0,0,1,0.5,-46)">
        <path d="M321.5,258.5C324.1,259.919 326.6,261.585 329,263.5C331.824,267.657 334.824,271.657 338,275.5C338.608,277.154 339.108,278.821 339.5,280.5L336.5,280.5C336.715,278.821 336.048,277.821 334.5,277.5C334.804,276.85 335.137,276.183 335.5,275.5C333.457,272.1 331.123,268.934 328.5,266C327.255,265.209 325.922,264.709 324.5,264.5L324.5,262.5C323.5,261.167 322.5,259.833 321.5,258.5Z" style="fill:rgb(73,137,164);fill-opacity:0.83;"/>
    </g>
    <g transform="matrix(1,0,0,1,0.5,-46)">
        <path d="M361.5,257.5C364.582,259.372 367.249,261.705 369.5,264.5C370.11,265.391 370.443,266.391 370.5,267.5C366.129,265.443 363.129,262.11 361.5,257.5Z" style="fill:rgb(72,136,168);fill-opacity:0.24;"/>
    </g>
    <g transform="matrix(1,0,0,1,0.5,-46)">
        <path d="M322.5,262.5L324.5,262.5L324.5,264.5C323.167,264.5 322.5,263.833 322.5,262.5Z" style="fill:rgb(74,132,173);fill-opacity:0.03;"/>
    </g>
    <g transform="matrix(1,0,0,1,0.5,-46)">
        <path d="M369.5,264.5C371.5,264.5 372.5,265.5 372.5,267.5L370.5,267.5C370.443,266.391 370.11,265.391 369.5,264.5Z" style="fill:rgb(74,132,172);fill-opacity:0.03;"/>
    </g>
    <g transform="matrix(1,0,0,1,0.5,-46)">
        <path d="M324.5,264.5C325.922,264.709 327.255,265.209 328.5,266C331.123,268.934 333.457,272.1 335.5,275.5C335.137,276.183 334.804,276.85 334.5,277.5C331.55,272.882 328.216,268.548 324.5,264.5Z" style="fill:rgb(72,134,170);fill-opacity:0.06;"/>
    </g>
    <g transform="matrix(1,0,0,1,0.5,-46)">
        <path d="M372.5,267.5C375.8,269.808 378.467,272.808 380.5,276.5C376.708,274.639 374.041,271.639 372.5,267.5Z" style="fill:rgb(73,134,170);fill-opacity:0.09;"/>
    </g>
    <g transform="matrix(1,0,0,1,0.5,-46)">
        <path d="M193.5,365.5C193.833,363.5 194.167,361.5 194.5,359.5C196.847,358.393 197.18,356.726 195.5,354.5L195.5,351.5C196.75,351.423 197.583,350.756 198,349.5C198.167,337 198.333,324.5 198.5,312C198.499,299.148 197.832,286.648 196.5,274.5C197.008,272.767 197.841,272.434 199,273.5C199.667,300.5 199.667,327.5 199,354.5C197.774,357.763 196.607,361.096 195.5,364.5C194.817,364.863 194.15,365.196 193.5,365.5Z" style="fill:rgb(73,138,163);fill-opacity:0.79;"/>
    </g>
    <g transform="matrix(1,0,0,1,0.5,-46)">
        <path d="M196.5,274.5C197.832,286.648 198.499,299.148 198.5,312C198.333,324.5 198.167,337 198,349.5C197.583,350.756 196.75,351.423 195.5,351.5L195.5,275.5C196.167,275.5 196.5,275.167 196.5,274.5Z" style="fill:rgb(73,134,170);fill-opacity:0.12;"/>
    </g>
    <g transform="matrix(1,0,0,1,0.5,-46)">
        <path d="M334.5,277.5C336.048,277.821 336.715,278.821 336.5,280.5C335.094,280.027 334.427,279.027 334.5,277.5Z" style="fill:rgb(73,134,170);fill-opacity:0.08;"/>
    </g>
    <g transform="matrix(1,0,0,1,0.5,-46)">
        <path d="M380.5,277.5C382.727,278.401 383.727,280.067 383.5,282.5C380.619,281.678 379.619,280.011 380.5,277.5Z" style="fill:rgb(72,134,170);fill-opacity:0.12;"/>
    </g>
    <g transform="matrix(1,0,0,1,0.5,-46)">
        <path d="M336.5,280.5L339.5,280.5C340.417,283.005 340.417,285.338 339.5,287.5C337.464,285.794 336.464,283.461 336.5,280.5Z" style="fill:rgb(72,135,167);fill-opacity:0.38;"/>
    </g>
    <g transform="matrix(1,0,0,1,0.5,-46)">
        <path d="M383.5,282.5C385.104,283.287 385.771,284.62 385.5,286.5C383.824,285.817 383.157,284.483 383.5,282.5Z" style="fill:rgb(72,134,170);fill-opacity:0.08;"/>
    </g>
    <g transform="matrix(1,0,0,1,0.5,-46)">
        <path d="M385.5,286.5C386.434,287.568 386.768,288.901 386.5,290.5L383.5,290.5C383.527,288.801 384.194,287.467 385.5,286.5Z" style="fill:rgb(72,136,167);fill-opacity:0.67;"/>
    </g>
    <g transform="matrix(1,0,0,1,0.5,-46)">
        <path d="M339.5,288.5C342.793,289.32 343.126,290.987 340.5,293.5C339.549,292.081 339.216,290.415 339.5,288.5Z" style="fill:rgb(72,135,168);fill-opacity:0.15;"/>
    </g>
    <g transform="matrix(1,0,0,1,0.5,-46)">
        <path d="M26.5,291.5C25.833,294.167 24.167,295.833 21.5,296.5C22.833,294.5 24.5,292.833 26.5,291.5Z" style="fill:rgb(78,142,159);fill-opacity:0.02;"/>
    </g>
    <g transform="matrix(1,0,0,1,0.5,-46)">
        <path d="M386.5,291.5L388.5,291.5L388.5,295.5L385.5,295.5C385.433,294.041 385.766,292.708 386.5,291.5Z" style="fill:rgb(73,135,168);fill-opacity:0.41;"/>
    </g>
    <g transform="matrix(1,0,0,1,0.5,-46)">
        <path d="M340.5,295.5C341.496,295.414 342.329,295.748 343,296.5C343.81,300.358 343.643,304.024 342.5,307.5C340.577,303.971 339.911,299.971 340.5,295.5Z" style="fill:rgb(72,135,169);fill-opacity:0.2;"/>
    </g>
    <g transform="matrix(1,0,0,1,0.5,-46)">
        <path d="M383.5,290.5L386.5,290.5L386.5,291.5C385.766,292.708 385.433,294.041 385.5,295.5L388.5,295.5L388.5,319.5C387.307,319.03 386.64,318.03 386.5,316.5C385.203,311.663 385.203,306.83 386.5,302C385.183,298.247 384.183,294.413 383.5,290.5Z" style="fill:rgb(73,138,165);fill-opacity:0.92;"/>
    </g>
    <g transform="matrix(1,0,0,1,0.5,-46)">
        <path d="M342.5,308.5L342.5,309.5C343.468,312.445 343.634,315.445 343,318.5C342.583,319.756 341.75,320.423 340.5,320.5C340.335,316.818 340.501,313.152 341,309.5C341.383,308.944 341.883,308.611 342.5,308.5Z" style="fill:rgb(72,135,169);fill-opacity:0.17;"/>
    </g>
    <g transform="matrix(1,0,0,1,0.5,-46)">
        <path d="M31.5,310.5C30.167,312.5 28.5,314.167 26.5,315.5C27.167,312.833 28.833,311.167 31.5,310.5Z" style="fill:rgb(78,142,159);fill-opacity:0.03;"/>
    </g>
    <g transform="matrix(1,0,0,1,0.5,-46)">
        <path d="M340.5,324.5C341.139,325.097 341.472,325.93 341.5,327C341.316,328.376 340.649,329.209 339.5,329.5C339.216,327.585 339.549,325.919 340.5,324.5Z" style="fill:rgb(72,135,168);fill-opacity:0.2;"/>
    </g>
    <g transform="matrix(1,0,0,1,0.5,-46)">
        <path d="M388.5,323.5L388.5,329.5L386.5,329.5C386.5,328.833 386.167,328.5 385.5,328.5C385.592,326.152 386.592,324.486 388.5,323.5Z" style="fill:rgb(73,135,169);fill-opacity:0.11;"/>
    </g>
    <g transform="matrix(1,0,0,1,0.5,-46)">
        <path d="M342.5,309.5C343.805,311.397 344.471,313.731 344.5,316.5C343.842,327.591 340.842,338.091 335.5,348C334.165,350.199 332.498,352.032 330.5,353.5L330.5,349.5C332.912,349.306 333.912,347.973 333.5,345.5C335.3,340.005 337.3,334.671 339.5,329.5C340.649,329.209 341.316,328.376 341.5,327C341.472,325.93 341.139,325.097 340.5,324.5L340.5,320.5C341.75,320.423 342.583,319.756 343,318.5C343.634,315.445 343.468,312.445 342.5,309.5Z" style="fill:rgb(73,137,165);fill-opacity:0.71;"/>
    </g>
    <g transform="matrix(1,0,0,1,0.5,-46)">
        <path d="M386.5,331.5C386.768,333.099 386.434,334.432 385.5,335.5C384.876,335.083 384.543,334.416 384.5,333.5C384.747,332.287 385.414,331.62 386.5,331.5Z" style="fill:rgb(73,136,168);fill-opacity:0.14;"/>
    </g>
    <g transform="matrix(1,0,0,1,0.5,-46)">
        <path d="M385.5,336.5C383.778,343.281 380.945,349.614 377,355.5C375.961,356.71 374.794,357.71 373.5,358.5C372.957,358.44 372.624,358.107 372.5,357.5C377.69,351.45 381.024,344.45 382.5,336.5L385.5,336.5Z" style="fill:rgb(72,135,169);fill-opacity:0.08;"/>
    </g>
    <g transform="matrix(1,0,0,1,0.5,-46)">
        <path d="M333.5,345.5C333.912,347.973 332.912,349.306 330.5,349.5C330.554,347.368 331.554,346.035 333.5,345.5Z" style="fill:rgb(71,136,169);fill-opacity:0.07;"/>
    </g>
    <g transform="matrix(1,0,0,1,0.5,-46)">
        <path d="M238.5,347.5C238.263,348.791 238.596,349.791 239.5,350.5C240.167,350.833 240.833,351.167 241.5,351.5L241.5,353.5C241.167,354.833 240.833,356.167 240.5,357.5C241.935,358.824 242.935,360.491 243.5,362.5C244.577,363.705 245.91,364.372 247.5,364.5C249.5,364.5 250.5,365.5 250.5,367.5C251.784,369.614 253.784,370.614 256.5,370.5L257.5,370.5C257.62,371.586 258.287,372.253 259.5,372.5C260.416,372.457 261.083,372.124 261.5,371.5L263.5,371.5C264.048,374.084 265.715,375.084 268.5,374.5C251.141,375.675 240.807,367.508 237.5,350C237.528,348.93 237.861,348.097 238.5,347.5Z" style="fill:rgb(73,138,164);fill-opacity:0.77;"/>
    </g>
    <g transform="matrix(1,0,0,1,0.5,-46)">
        <path d="M330.5,349.5L330.5,353.5C329.833,353.5 329.5,353.833 329.5,354.5C328.833,354.833 328.167,355.167 327.5,355.5L327.5,353.5C327.738,351.596 328.738,350.262 330.5,349.5Z" style="fill:rgb(72,136,167);fill-opacity:0.35;"/>
    </g>
    <g transform="matrix(1,0,0,1,0.5,-46)">
        <path d="M241.5,353.5C243.104,354.287 243.771,355.62 243.5,357.5L240.5,357.5C240.833,356.167 241.167,354.833 241.5,353.5Z" style="fill:rgb(72,134,171);fill-opacity:0.16;"/>
    </g>
    <g transform="matrix(1,0,0,1,0.5,-46)">
        <path d="M327.5,353.5L327.5,355.5C325.167,357.167 323.167,359.167 321.5,361.5L319.5,361.5C321.5,358.167 324.167,355.5 327.5,353.5Z" style="fill:rgb(73,133,171);fill-opacity:0.04;"/>
    </g>
    <g transform="matrix(1,0,0,1,0.5,-46)">
        <path d="M329.5,354.5C327.395,359.693 323.729,363.36 318.5,365.5C319.211,363.97 320.211,362.637 321.5,361.5C323.167,359.167 325.167,357.167 327.5,355.5C328.167,355.167 328.833,354.833 329.5,354.5Z" style="fill:rgb(73,138,164);fill-opacity:0.84;"/>
    </g>
    <g transform="matrix(1,0,0,1,0.5,-46)">
        <path d="M195.5,354.5C197.18,356.726 196.847,358.393 194.5,359.5C194.216,357.585 194.549,355.919 195.5,354.5Z" style="fill:rgb(72,136,167);fill-opacity:0.33;"/>
    </g>
    <g transform="matrix(1,0,0,1,0.5,-46)">
        <path d="M385.5,328.5C386.167,328.5 386.5,328.833 386.5,329.5L386.5,331.5C385.414,331.62 384.747,332.287 384.5,333.5C384.543,334.416 384.876,335.083 385.5,335.5L385.5,336.5L382.5,336.5C381.024,344.45 377.69,351.45 372.5,357.5C372.624,358.107 372.957,358.44 373.5,358.5C372.833,359.5 372.167,360.5 371.5,361.5C369.368,361.554 368.035,362.554 367.5,364.5C365.5,364.5 364.5,365.5 364.5,367.5C363.833,368.833 362.833,369.833 361.5,370.5C361.103,369.475 360.437,369.308 359.5,370C358.252,371.4 357.252,372.9 356.5,374.5L355.5,374.5C354.833,373.167 354.167,373.167 353.5,374.5L350.5,374.5C358.363,369.148 365.53,362.814 372,355.5C377.24,346.354 381.74,337.354 385.5,328.5Z" style="fill:rgb(73,137,164);fill-opacity:0.86;"/>
    </g>
    <g transform="matrix(1,0,0,1,0.5,-46)">
        <path d="M240.5,357.5L243.5,357.5C244.833,359.833 246.167,362.167 247.5,364.5C245.91,364.372 244.577,363.705 243.5,362.5C242.935,360.491 241.935,358.824 240.5,357.5Z" style="fill:rgb(72,136,168);fill-opacity:0.31;"/>
    </g>
    <g transform="matrix(1,0,0,1,0.5,-46)">
        <path d="M371.5,361.5C370.738,363.262 369.404,364.262 367.5,364.5C368.035,362.554 369.368,361.554 371.5,361.5Z" style="fill:rgb(73,133,171);fill-opacity:0.04;"/>
    </g>
    <g transform="matrix(1,0,0,1,0.5,-46)">
        <path d="M194.5,359.5C194.167,361.5 193.833,363.5 193.5,365.5C191.81,365.856 190.81,366.856 190.5,368.5C188.243,368.962 186.243,369.962 184.5,371.5C183.817,371.137 183.15,370.804 182.5,370.5C183.978,368.636 185.978,367.303 188.5,366.5C190.765,364.24 192.765,361.906 194.5,359.5Z" style="fill:rgb(72,135,168);fill-opacity:0.17;"/>
    </g>
    <g transform="matrix(1,0,0,1,0.5,-46)">
        <path d="M247.5,364.5C249.5,364.5 250.5,365.5 250.5,367.5C248.5,367.5 247.5,366.5 247.5,364.5Z" style="fill:rgb(73,134,170);fill-opacity:0.05;"/>
    </g>
    <g transform="matrix(1,0,0,1,0.5,-46)">
        <path d="M319.5,361.5L321.5,361.5C320.211,362.637 319.211,363.97 318.5,365.5C316.254,366.455 313.921,367.122 311.5,367.5C313.837,365.267 316.503,363.267 319.5,361.5Z" style="fill:rgb(72,135,169);fill-opacity:0.06;"/>
    </g>
    <g transform="matrix(1,0,0,1,0.5,-46)">
        <path d="M367.5,364.5C367.5,366.5 366.5,367.5 364.5,367.5C364.5,365.5 365.5,364.5 367.5,364.5Z" style="fill:rgb(73,133,171);fill-opacity:0.07;"/>
    </g>
    <g transform="matrix(1,0,0,1,0.5,-46)">
        <path d="M250.5,367.5C253.216,367.386 255.216,368.386 256.5,370.5C253.784,370.614 251.784,369.614 250.5,367.5Z" style="fill:rgb(72,135,170);fill-opacity:0.11;"/>
    </g>
    <g transform="matrix(1,0,0,1,0.5,-46)">
        <path d="M311.5,367.5C310.5,368.833 309.5,370.167 308.5,371.5C305.734,372.232 303.068,372.232 300.5,371.5C303.797,369.399 307.463,368.065 311.5,367.5Z" style="fill:rgb(72,135,168);fill-opacity:0.35;"/>
    </g>
    <g transform="matrix(1,0,0,1,0.5,-46)">
        <path d="M361.5,370.5C360.421,372.543 358.754,373.876 356.5,374.5C357.252,372.9 358.252,371.4 359.5,370C360.437,369.308 361.103,369.475 361.5,370.5Z" style="fill:rgb(72,134,170);fill-opacity:0.08;"/>
    </g>
    <g transform="matrix(1,0,0,1,0.5,-46)">
        <path d="M257.5,370.5C259.099,370.232 260.432,370.566 261.5,371.5C261.083,372.124 260.416,372.457 259.5,372.5C258.287,372.253 257.62,371.586 257.5,370.5Z" style="fill:rgb(72,135,169);fill-opacity:0.2;"/>
    </g>
    <g transform="matrix(1,0,0,1,0.5,-46)">
        <path d="M181.5,370.5C180.263,372.097 178.596,373.263 176.5,374C175.072,374.579 173.738,374.412 172.5,373.5C175.008,371.446 178.008,370.446 181.5,370.5Z" style="fill:rgb(73,135,169);fill-opacity:0.1;"/>
    </g>
    <g transform="matrix(1,0,0,1,0.5,-46)">
        <path d="M263.5,371.5C265.527,371.338 267.527,371.505 269.5,372C270.056,372.383 270.389,372.883 270.5,373.5C269.508,373.328 268.842,373.662 268.5,374.5C265.715,375.084 264.048,374.084 263.5,371.5Z" style="fill:rgb(72,135,169);fill-opacity:0.11;"/>
    </g>
    <g transform="matrix(1,0,0,1,0.5,-46)">
        <path d="M298.5,371.5C297.448,373.256 295.781,373.923 293.5,373.5C294.635,371.787 296.302,371.12 298.5,371.5Z" style="fill:rgb(72,135,170);fill-opacity:0.1;"/>
    </g>
    <g transform="matrix(1,0,0,1,0.5,-46)">
        <path d="M169.5,373.5C169.03,374.693 168.03,375.36 166.5,375.5C165.274,375.48 164.274,375.147 163.5,374.5C165.265,373.539 167.265,373.205 169.5,373.5Z" style="fill:rgb(72,134,170);fill-opacity:0.17;"/>
    </g>
    <g transform="matrix(1,0,0,1,0.5,-46)">
        <path d="M298.5,371.5L300.5,371.5C303.068,372.232 305.734,372.232 308.5,371.5C305.977,372.851 303.311,374.017 300.5,375C298.432,375.687 296.432,375.52 294.5,374.5C287.461,377.968 280.128,378.468 272.5,376C271.748,375.329 271.414,374.496 271.5,373.5L279.5,373.5C280.514,374.765 282.014,375.431 284,375.5C285.986,375.431 287.486,374.765 288.5,373.5L293.5,373.5C295.781,373.923 297.448,373.256 298.5,371.5Z" style="fill:rgb(73,138,164);fill-opacity:0.69;"/>
    </g>
    <g transform="matrix(1,0,0,1,0.5,-46)">
        <path d="M279.5,373.5L288.5,373.5C287.486,374.765 285.986,375.431 284,375.5C282.014,375.431 280.514,374.765 279.5,373.5Z" style="fill:rgb(72,136,168);fill-opacity:0.34;"/>
    </g>
    <g transform="matrix(1,0,0,1,0.5,-46)">
        <path d="M355.5,374.5C354.738,376.262 353.404,377.262 351.5,377.5C351.782,376.222 352.449,375.222 353.5,374.5C354.167,373.167 354.833,373.167 355.5,374.5Z" style="fill:rgb(72,134,170);fill-opacity:0.1;"/>
    </g>
    <g transform="matrix(1,0,0,1,0.5,-46)">
        <path d="M161.5,374.5C161.586,375.496 161.252,376.329 160.5,377C157.832,377.567 155.166,378.067 152.5,378.5C152.574,376.589 153.574,375.422 155.5,375C157.473,374.505 159.473,374.338 161.5,374.5Z" style="fill:rgb(72,136,168);fill-opacity:0.41;"/>
    </g>
    <g transform="matrix(1,0,0,1,0.5,-46)">
        <path d="M190.5,368.5C189.652,370.093 188.319,371.26 186.5,372C176.618,375.145 166.618,377.478 156.5,379C155.106,379.956 154.439,381.289 154.5,383C154.943,384.825 155.277,386.658 155.5,388.5L152.5,388.5L152.5,386.5C153.546,384.215 153.546,381.882 152.5,379.5L152.5,378.5C155.166,378.067 157.832,377.567 160.5,377C161.252,376.329 161.586,375.496 161.5,374.5L163.5,374.5C164.274,375.147 165.274,375.48 166.5,375.5C168.03,375.36 169.03,374.693 169.5,373.5L172.5,373.5C173.738,374.412 175.072,374.579 176.5,374C178.596,373.263 180.263,372.097 181.5,370.5L182.5,370.5C183.15,370.804 183.817,371.137 184.5,371.5C186.243,369.962 188.243,368.962 190.5,368.5Z" style="fill:rgb(73,137,164);fill-opacity:0.66;"/>
    </g>
    <g transform="matrix(1,0,0,1,0.5,-46)">
        <path d="M350.5,374.5L353.5,374.5C352.449,375.222 351.782,376.222 351.5,377.5C346.848,380.536 341.848,383.036 336.5,385C333.243,386.043 329.91,386.543 326.5,386.5C326.611,385.883 326.944,385.383 327.5,385C334.164,383.205 340.664,381.039 347,378.5C348.31,377.87 349.144,376.87 349.5,375.5C350.167,375.5 350.5,375.167 350.5,374.5Z" style="fill:rgb(72,136,168);fill-opacity:0.28;"/>
    </g>
    <g transform="matrix(1,0,0,1,0.5,-46)">
        <path d="M349.5,375.5C349.144,376.87 348.31,377.87 347,378.5C340.664,381.039 334.164,383.205 327.5,385C326.944,385.383 326.611,385.883 326.5,386.5C325.305,386.322 324.138,385.989 323,385.5C321.251,385.748 320.418,386.748 320.5,388.5L317.5,388.5C317.33,387.178 317.663,386.011 318.5,385C322.188,384.81 325.688,383.976 329,382.5C329.333,382.833 329.667,383.167 330,383.5C336.387,380.538 342.887,377.872 349.5,375.5Z" style="fill:rgb(73,138,164);fill-opacity:0.74;"/>
    </g>
    <g transform="matrix(1,0,0,1,0.5,-46)">
        <path d="M152.5,379.5C153.546,381.882 153.546,384.215 152.5,386.5C151.053,385.866 150.387,384.699 150.5,383C150.387,381.301 151.053,380.134 152.5,379.5Z" style="fill:rgb(73,134,170);fill-opacity:0.08;"/>
    </g>
    <g transform="matrix(1,0,0,1,0.5,-46)">
        <path d="M251.5,388.5L241.5,388.5C230.515,386.764 219.182,385.764 207.5,385.5L207.5,388.5L198.5,388.5C198.33,387.178 198.663,386.011 199.5,385C216.5,384.333 233.5,384.333 250.5,385C251.337,386.011 251.67,387.178 251.5,388.5Z" style="fill:rgb(73,138,165);fill-opacity:0.7;"/>
    </g>
    <g transform="matrix(1,0,0,1,0.5,-46)">
        <path d="M193.5,388.5L162.5,388.5C168.586,386.637 175.086,385.637 182,385.5C185.523,385.837 189.023,386.337 192.5,387C193.056,387.383 193.389,387.883 193.5,388.5Z" style="fill:rgb(73,137,165);fill-opacity:0.94;"/>
    </g>
    <g transform="matrix(1,0,0,1,0.5,-46)">
        <path d="M292.5,388.5L258.5,388.5C262.543,386.615 267.043,385.615 272,385.5C278.483,386.186 284.983,386.686 291.5,387C292.056,387.383 292.389,387.883 292.5,388.5Z" style="fill:rgb(73,137,165);fill-opacity:0.94;"/>
    </g>
    <g transform="matrix(1,0,0,1,0.5,-46)">
        <path d="M316.5,388.5L300.5,388.5C303.738,386.773 307.405,385.773 311.5,385.5C313.759,385.784 315.426,386.784 316.5,388.5Z" style="fill:rgb(73,137,165);fill-opacity:0.94;"/>
    </g>
    <g transform="matrix(1,0,0,1,0.5,-46)">
        <path d="M241.5,388.5L207.5,388.5L207.5,385.5C219.182,385.764 230.515,386.764 241.5,388.5Z" style="fill:rgb(72,136,168);fill-opacity:0.21;"/>
    </g>
    <g transform="matrix(1,0,0,1,0.5,-46)">
        <path d="M326.5,386.5C326.167,387.167 325.833,387.833 325.5,388.5L320.5,388.5C320.418,386.748 321.251,385.748 323,385.5C324.138,385.989 325.305,386.322 326.5,386.5Z" style="fill:rgb(72,136,169);fill-opacity:0.11;"/>
    </g>
</svg>
